<svg xmlns="http://www.w3.org/2000/svg" version="1.1" viewBox="-5.0 -10.0 110.0 135.0">
 <path d="m77.898 22h-54.855c-1.1055 0-2-0.89453-2-2v-6c0-0.55078 0.44922-1 1-1h56.855c0.55078 0 1 0.44922 1 1v6c0 1.1055-0.89453 2-2 2zm6.7891 61.73-5.2305-58.199c-0.042969-0.51172-0.47656-0.91016-0.99609-0.91016h-56.223c-0.51953 0-0.94922 0.39453-0.99609 0.91016l-5.2305 58.199c-0.15625 1.7578 1.2266 3.2695 2.9883 3.2695h62.699c1.7656 0 3.1484-1.5117 2.9883-3.2695zm-44.969-44.23c0.82812 0 1.5 0.67188 1.5 1.5v8.5c0 5.5234 4.4766 10 10 10s10-4.4766 10-10v-8.5c0-0.82812 0.67188-1.5 1.5-1.5s1.5 0.67188 1.5 1.5v8.5c0 7.1797-5.8203 13-13 13s-13-5.8203-13-13v-8.5c0-0.82812 0.67188-1.5 1.5-1.5z" fill-rule="evenodd"/>
<text x="0.0" y="117.5" font-size="5.0" font-weight="bold" font-family="Arbeit Regular, Helvetica, Arial-Unicode, Arial, Sans-serif" fill="#000000">Created by Ashok</text><text x="0.0" y="122.5" font-size="5.0" font-weight="bold" font-family="Arbeit Regular, Helvetica, Arial-Unicode, Arial, Sans-serif" fill="#000000">from Noun Project</text></svg>